<svg width="384" height="92" viewBox="0 0 384 92" fill="none" xmlns="http://www.w3.org/2000/svg">
<path d="M101.702 97.2423C201.507 39.2271 301.279 -18.8462 401.017 -76.9774C459.111 -71.0994 511.758 -44.509 569.951 -61.6823C619.447 -76.2624 661.493 -88.2551 713.992 -89.5014C428.592 74.8461 143.395 239.505 -141.598 404.474C-120.585 377.078 -100.129 349.522 -72.2901 328.754C-49.6331 311.781 -23.5243 300.849 0.00973707 285.333C64.7623 242.539 68.586 161.529 101.702 97.2423Z" stroke="#FD7E0D" stroke-width="0.3" stroke-miterlimit="10"/>
<path d="M-86.1244 339.598C43.055 280.78 181.95 243.614 304.821 171.211C427.692 98.8071 528.398 -3.94909 645.163 -84.8247" stroke="#FD7E0D" stroke-width="0.3" stroke-miterlimit="10"/>
<path d="M-35.9364 305.784C83.7292 274.954 221.368 264.864 327.456 196.169C434.486 126.877 508.723 15.9085 599.615 -71.4699" stroke="#FD7E0D" stroke-width="0.3" stroke-miterlimit="10"/>
<path d="M4.75508 282.291C114.269 263.284 236.147 254.992 330.957 191.006C426.025 126.817 489.777 24.6508 564.987 -59.833" stroke="#FD7E0D" stroke-width="0.3" stroke-miterlimit="10"/>
<path d="M33.2056 256.584C129.672 235.541 235.639 217.903 318.323 160.186C401.911 101.84 465.984 19.3405 535.236 -54.3125" stroke="#FD7E0D" stroke-width="0.3" stroke-miterlimit="10"/>
<path d="M51.4944 226.848C137.8 201.317 226.548 175.161 301.839 124.212C377.475 73.0274 441.361 6.56089 507.463 -55.8825" stroke="#FD7E0D" stroke-width="0.3" stroke-miterlimit="10"/>
<path d="M63.8581 197.126C141.087 167.963 216.889 136.267 286.607 91.6227C356.326 46.9787 418.92 -7.78009 482.385 -60.5963" stroke="#FD7E0D" stroke-width="0.3" stroke-miterlimit="10"/>
<path d="M73.0649 169.782C213.352 106.64 337.24 25.4548 460.402 -65.9872" stroke="#FD7E0D" stroke-width="0.3" stroke-miterlimit="10"/>
<path d="M80.7364 145.984C206.285 82.3003 324.979 8.04171 441.524 -70.7427" stroke="#FD7E0D" stroke-width="0.3" stroke-miterlimit="10"/>
<path d="M87.7333 126.07C202.525 63.2049 314.734 -4.50647 425.508 -74.2999" stroke="#FD7E0D" stroke-width="0.3" stroke-miterlimit="10"/>
<path d="M94.6928 109.932C201.182 49.0746 306.914 -13.2192 412.08 -76.2757" stroke="#FD7E0D" stroke-width="0.3" stroke-miterlimit="10"/>
<path d="M373.603 -61.0244C420.894 -47.6058 476.245 -1.45722 527.241 -12.5117C543.243 -15.9657 555.18 -25.9641 569.549 -32.8321C591.939 -43.5271 610.045 -45.5005 634.752 -43.8942" stroke="#FD7E0D" stroke-width="0.3" stroke-miterlimit="10"/>
<path d="M346.267 -45.0992C375.339 -29.6242 399.211 -11.0041 426.038 8.03432C437.881 16.4252 467.968 40.9549 485.986 38.6751C518.203 34.6425 517.122 -0.563648 555.94 1.64338" stroke="#FD7E0D" stroke-width="0.3" stroke-miterlimit="10"/>
<path d="M318.977 -29.2C343.888 -7.69838 366.488 15.4589 389.2 39.3368C397.864 48.438 430.342 90.0648 444.384 88.938C466.313 87.1854 450.577 37.8208 477.351 47.0887" stroke="#FD7E0D" stroke-width="0.3" stroke-miterlimit="10"/>
<path d="M291.697 -13.324C315.01 17.0982 337.041 48.3316 359.087 79.6819C372.477 98.7303 385.694 122.52 404.174 137.273C404.766 126.827 388.809 96.4062 399.12 92.3101" stroke="#FD7E0D" stroke-width="0.3" stroke-miterlimit="10"/>
<path d="M264.441 2.51985C294.05 61.4419 331.188 119.212 355.531 180.515C345.687 170.237 334.21 141.051 321.063 137.359" stroke="#FD7E0D" stroke-width="0.3" stroke-miterlimit="10"/>
<path d="M237.216 18.3084C250.045 62.9779 267.829 104.572 284.087 148.101C286.693 155.058 310.018 203.095 303.982 210.668C290.585 227.507 262.276 169.941 243.288 182.261" stroke="#FD7E0D" stroke-width="0.3" stroke-miterlimit="10"/>
<path d="M210.009 34.0502C214.344 76.8398 225.949 116.824 236.495 158.313C238.746 167.189 255.863 217.988 246.659 232.318C229.261 259.358 185.073 196.767 165.783 227.025" stroke="#FD7E0D" stroke-width="0.3" stroke-miterlimit="10"/>
<path d="M182.904 49.9167C179.277 95.4286 188.429 138.4 192.629 183.553C193.765 195.787 200.256 239.652 188.375 251.975C162.265 279.046 109.308 228.695 88.4828 271.568" stroke="#FD7E0D" stroke-width="0.3" stroke-miterlimit="10"/>
<path d="M155.806 65.7211C145.827 107.188 148.841 148.401 146.289 190.704C144.881 213.993 144.719 246.953 125.692 263.688C109.007 278.266 84.4026 275.136 64.0245 279.76C39.5869 285.3 25.6831 295.541 11.4622 315.963" stroke="#FD7E0D" stroke-width="0.3" stroke-miterlimit="10"/>
<path d="M128.766 81.5107C107.2 138.129 116.954 235.419 62.7491 274.498C42.2991 289.232 15.6823 293.317 -6.61848 304.567C-32.3079 317.525 -49.1526 336.587 -65.2231 360.237" stroke="#FD7E0D" stroke-width="0.3" stroke-miterlimit="10"/>
</svg>
