<svg
          width="134"
          height="21"
          viewBox="0 0 134 21"
          fill="none"
          xmlns="http://www.w3.org/2000/svg"
        >
          <path
            d="M10.2803 8.2395C10.7663 8.2395 11.1603 7.82501 11.1603 7.31371C11.1603 6.80241 10.7663 6.38792 10.2803 6.38792C9.79435 6.38792 9.40039 6.80241 9.40039 7.31371C9.40039 7.82501 9.79435 8.2395 10.2803 8.2395Z"
            fill="#66CC0D"
          />
          <path
            d="M13.5059 8.23949C13.9919 8.23949 14.3859 7.825 14.3859 7.3137C14.3859 6.8024 13.9919 6.38791 13.5059 6.38791C13.0199 6.38791 12.626 6.8024 12.626 7.3137C12.626 7.825 13.0199 8.23949 13.5059 8.23949Z"
            fill="#66CC0D"
          />
          <path
            d="M16.7332 8.2395C17.2192 8.2395 17.6132 7.82501 17.6132 7.31371C17.6132 6.80241 17.2192 6.38792 16.7332 6.38792C16.2473 6.38792 15.8533 6.80241 15.8533 7.31371C15.8533 7.82501 16.2473 8.2395 16.7332 8.2395Z"
            fill="#66CC0D"
          />
          <path
            d="M42.1192 7.45259C42.6052 7.45259 42.9991 7.0381 42.9991 6.5268C42.9991 6.0155 42.6052 5.60101 42.1192 5.60101C41.6332 5.60101 41.2393 6.0155 41.2393 6.5268C41.2393 7.0381 41.6332 7.45259 42.1192 7.45259Z"
            fill="#66CC0D"
          />
          <path
            d="M45.3438 7.45252C45.8298 7.45252 46.2238 7.03803 46.2238 6.52673C46.2238 6.01543 45.8298 5.60094 45.3438 5.60094C44.8579 5.60094 44.4639 6.01543 44.4639 6.52673C44.4639 7.03803 44.8579 7.45252 45.3438 7.45252Z"
            fill="#66CC0D"
          />
          <path
            d="M48.5723 7.45264C49.0583 7.45264 49.4522 7.03815 49.4522 6.52685C49.4522 6.01555 49.0583 5.60106 48.5723 5.60106C48.0863 5.60106 47.6924 6.01555 47.6924 6.52685C47.6924 7.03815 48.0863 7.45264 48.5723 7.45264Z"
            fill="#66CC0D"
          />
          <path
            d="M60.584 12.3439C61.07 12.3439 61.464 11.9294 61.464 11.4181C61.464 10.9068 61.07 10.4923 60.584 10.4923C60.0981 10.4923 59.7041 10.9068 59.7041 11.4181C59.7041 11.9294 60.0981 12.3439 60.584 12.3439Z"
            fill="#66CC0D"
          />
          <path
            d="M60.584 15.7385C61.07 15.7385 61.464 15.324 61.464 14.8127C61.464 14.3014 61.07 13.8869 60.584 13.8869C60.0981 13.8869 59.7041 14.3014 59.7041 14.8127C59.7041 15.324 60.0981 15.7385 60.584 15.7385Z"
            fill="#66CC0D"
          />
          <path
            d="M60.584 19.133C61.07 19.133 61.464 18.7185 61.464 18.2072C61.464 17.6959 61.07 17.2814 60.584 17.2814C60.0981 17.2814 59.7041 17.6959 59.7041 18.2072C59.7041 18.7185 60.0981 19.133 60.584 19.133Z"
            fill="#66CC0D"
          />
          <path
            d="M73.4014 3.70317C73.8874 3.70317 74.2814 3.28868 74.2814 2.77738C74.2814 2.26608 73.8874 1.85159 73.4014 1.85159C72.9154 1.85159 72.5215 2.26608 72.5215 2.77738C72.5215 3.28868 72.9154 3.70317 73.4014 3.70317Z"
            fill="#66CC0D"
          />
          <path
            d="M73.4014 7.0977C73.8874 7.0977 74.2814 6.68321 74.2814 6.17191C74.2814 5.66061 73.8874 5.24612 73.4014 5.24612C72.9154 5.24612 72.5215 5.66061 72.5215 6.17191C72.5215 6.68321 72.9154 7.0977 73.4014 7.0977Z"
            fill="#66CC0D"
          />
          <path
            d="M73.4014 10.4923C73.8874 10.4923 74.2814 10.0778 74.2814 9.56648C74.2814 9.05518 73.8874 8.64069 73.4014 8.64069C72.9154 8.64069 72.5215 9.05518 72.5215 9.56648C72.5215 10.0778 72.9154 10.4923 73.4014 10.4923Z"
            fill="#66CC0D"
          />
          <path
            d="M42.1192 15.4762C42.6052 15.4762 42.9991 15.0617 42.9991 14.5504C42.9991 14.0391 42.6052 13.6246 42.1192 13.6246C41.6332 13.6246 41.2393 14.0391 41.2393 14.5504C41.2393 15.0617 41.6332 15.4762 42.1192 15.4762Z"
            fill="#66CC0D"
          />
          <path
            d="M45.3438 15.4761C45.8298 15.4761 46.2238 15.0616 46.2238 14.5503C46.2238 14.039 45.8298 13.6245 45.3438 13.6245C44.8579 13.6245 44.4639 14.039 44.4639 14.5503C44.4639 15.0616 44.8579 15.4761 45.3438 15.4761Z"
            fill="#66CC0D"
          />
          <path
            d="M48.5723 15.4762C49.0583 15.4762 49.4522 15.0617 49.4522 14.5504C49.4522 14.0391 49.0583 13.6246 48.5723 13.6246C48.0863 13.6246 47.6924 14.0391 47.6924 14.5504C47.6924 15.0617 48.0863 15.4762 48.5723 15.4762Z"
            fill="#66CC0D"
          />
          <path
            d="M0 20.1051V0.879482C0 0.570886 0.249316 0.308578 0.542629 0.308578H17.4668C18.64 0.308578 19.6373 0.432017 20.4586 0.663465C21.2799 0.894912 21.9398 1.2498 22.4384 1.72812C22.9371 2.19102 23.3037 2.77735 23.5237 3.47169C23.7437 4.16604 23.861 4.95296 23.861 5.86332V8.50182C23.861 9.39675 23.7437 10.1991 23.5237 10.8934C23.3037 11.5878 22.9371 12.1587 22.4384 12.637C21.9398 13.0999 21.2799 13.4548 20.4586 13.7017C19.6373 13.9331 18.64 14.0566 17.4668 14.0566H4.34103C4.03305 14.0566 3.7984 14.3189 3.7984 14.6275V20.1205C3.7984 20.4445 3.54909 20.6914 3.25577 20.6914H0.542629C0.249316 20.676 0 20.4136 0 20.1051ZM3.7984 9.73621C3.7984 10.0602 4.04772 10.3071 4.34103 10.3071H17.4961C18.3467 10.3071 18.9773 10.1682 19.3733 9.87507C19.7693 9.59734 19.9599 9.1653 19.9599 8.5944V6.01762C19.9599 5.44671 19.7693 5.01468 19.3733 4.73694C18.9773 4.4592 18.3614 4.3049 17.4961 4.3049H4.34103C4.03305 4.3049 3.7984 4.56721 3.7984 4.87581V9.73621Z"
            fill="#2B2927"
          />
          <path
            d="M54.732 20.676C54.4093 20.676 54.1454 20.3982 54.1454 20.0588V2.19104C54.1454 1.49669 54.336 0.956649 54.7173 0.570904C55.0986 0.185158 55.5533 0 56.0519 0C56.2719 0 56.5065 0.0462895 56.7558 0.123439C57.0052 0.200588 57.2251 0.324026 57.4305 0.509184L74.7946 13.7017C75.2052 14.0103 75.7478 13.748 75.7478 13.2234V0.92579C75.7478 0.586334 76.0118 0.308597 76.3345 0.308597H79.2529C79.5756 0.308597 79.8396 0.586334 79.8396 0.92579V18.809C79.8396 19.5033 79.6489 20.0433 79.2676 20.4291C78.8863 20.8148 78.4317 21 77.933 21C77.713 21 77.4784 20.9537 77.2291 20.8766C76.9798 20.7994 76.7598 20.676 76.5545 20.4908L59.1903 7.31374C58.809 6.98971 58.2371 7.26745 58.2371 7.79206V20.0588C58.2371 20.3982 57.9731 20.676 57.6504 20.676H54.732Z"
            fill="#2B2927"
          />
          <path
            d="M27.0869 20.1051V0.879543C27.0869 0.555517 27.3362 0.30864 27.6295 0.30864H50.3613C50.6693 0.30864 50.9039 0.570947 50.9039 0.879543V3.73406C50.9039 4.05809 50.6546 4.30497 50.3613 4.30497H31.4279C31.12 4.30497 30.8853 4.56727 30.8853 4.87587V8.11613C30.8853 8.44016 31.1346 8.68704 31.4279 8.68704H50.3613C50.6693 8.68704 50.9039 8.94934 50.9039 9.25794V11.8347C50.9039 12.1587 50.6546 12.4056 50.3613 12.4056H31.4279C31.12 12.4056 30.8853 12.6679 30.8853 12.9765V16.0934C30.8853 16.4174 31.1346 16.6643 31.4279 16.6643H50.3613C50.6693 16.6643 50.9039 16.9266 50.9039 17.2352V20.0897C50.9039 20.4137 50.6546 20.6606 50.3613 20.6606H27.6295C27.3362 20.676 27.0869 20.4137 27.0869 20.1051Z"
            fill="#2B2927"
          />
          <path
            d="M116.504 16.6797C115.653 16.6797 115.023 16.5408 114.627 16.2477C114.231 15.9699 114.04 15.5379 114.04 14.967V6.01769C114.04 5.44679 114.231 5.01475 114.627 4.73702C115.023 4.45928 115.639 4.30498 116.504 4.30498H133.399C133.707 4.30498 133.942 4.04267 133.942 3.73408V0.879559C133.942 0.555532 133.692 0.308655 133.399 0.308655H116.533C115.345 0.308655 114.348 0.432093 113.527 0.663541C112.72 0.894988 112.06 1.24987 111.562 1.7282C111.063 2.19109 110.696 2.77743 110.476 3.47177C110.257 4.16611 110.139 4.95303 110.139 5.86339V8.50189H106.898V5.84796C106.898 4.95303 106.781 4.15068 106.561 3.45634C106.341 2.762 105.974 2.19109 105.476 1.71277C104.977 1.24987 104.317 0.894988 103.496 0.648111C102.674 0.432093 101.677 0.308655 100.504 0.308655H83.609C83.301 0.308655 83.0664 0.570962 83.0664 0.879559V20.1051C83.0664 20.4292 83.3157 20.676 83.609 20.676H100.504C101.677 20.676 102.674 20.5526 103.496 20.3211C104.317 20.0897 104.977 19.7348 105.476 19.2565C105.974 18.7936 106.341 18.2073 106.561 17.5129C106.781 16.8186 106.898 16.0317 106.898 15.1213V12.4982H110.139V15.1367C110.139 16.0317 110.257 16.834 110.476 17.5283C110.696 18.2227 111.063 18.7936 111.562 19.2719C112.06 19.7348 112.72 20.0897 113.527 20.3366C114.334 20.568 115.345 20.6915 116.533 20.6915H133.458C133.766 20.6915 134 20.4292 134 20.1206V17.266C134 16.942 133.751 16.6951 133.458 16.6951H116.504V16.6797ZM102.997 14.967C102.997 15.5379 102.806 15.9699 102.41 16.2477C102.014 16.5254 101.398 16.6797 100.533 16.6797H87.4074C87.0995 16.6797 86.8648 16.4174 86.8648 16.1088V4.87588C86.8648 4.55186 87.1141 4.30498 87.4074 4.30498H100.533C101.384 4.30498 102.014 4.44385 102.41 4.73702C102.806 5.01475 102.997 5.44679 102.997 6.01769V14.967Z"
            fill="#FD7E0D"
          />
        </svg>