<svg width="51" height="21" viewBox="0 0 51 21" fill="none" xmlns="http://www.w3.org/2000/svg">
<path d="M33.5041 16.6797C32.6535 16.6797 32.0228 16.5408 31.6269 16.2477C31.2309 15.9699 31.0402 15.5379 31.0402 14.967V6.01769C31.0402 5.44679 31.2309 5.01475 31.6269 4.73702C32.0228 4.45928 32.6388 4.30498 33.5041 4.30498H50.3989C50.7069 4.30498 50.9415 4.04267 50.9415 3.73408V0.879559C50.9415 0.555532 50.6922 0.308655 50.3989 0.308655H33.5334C32.3455 0.308655 31.3482 0.432093 30.5269 0.663541C29.7203 0.894988 29.0604 1.24987 28.5618 1.7282C28.0631 2.19109 27.6965 2.77743 27.4765 3.47177C27.2565 4.16611 27.1392 4.95303 27.1392 5.86339V8.50189H23.8981V5.84796C23.8981 4.95303 23.7807 4.15068 23.5608 3.45634C23.3408 2.762 22.9741 2.19109 22.4755 1.71277C21.9769 1.24987 21.3169 0.894988 20.4956 0.648111C19.6744 0.432093 18.6771 0.308655 17.5039 0.308655H0.609028C0.301049 0.308655 0.0664062 0.570962 0.0664062 0.879559V20.1051C0.0664062 20.4292 0.315715 20.676 0.609028 20.676H17.5039C18.6771 20.676 19.6744 20.5526 20.4956 20.3211C21.3169 20.0897 21.9769 19.7348 22.4755 19.2565C22.9741 18.7936 23.3408 18.2073 23.5608 17.5129C23.7807 16.8186 23.8981 16.0317 23.8981 15.1213V12.4982H27.1392V15.1367C27.1392 16.0317 27.2565 16.834 27.4765 17.5283C27.6965 18.2227 28.0631 18.7936 28.5618 19.2719C29.0604 19.7348 29.7203 20.0897 30.5269 20.3366C31.3336 20.568 32.3455 20.6915 33.5334 20.6915H50.4576C50.7655 20.6915 51.0002 20.4292 51.0002 20.1206V17.266C51.0002 16.942 50.7509 16.6951 50.4576 16.6951H33.5041V16.6797ZM19.997 14.967C19.997 15.5379 19.8064 15.9699 19.4104 16.2477C19.0144 16.5254 18.3985 16.6797 17.5332 16.6797H4.40743C4.09946 16.6797 3.8648 16.4174 3.8648 16.1088V4.87588C3.8648 4.55186 4.11412 4.30498 4.40743 4.30498H17.5332C18.3838 4.30498 19.0144 4.44385 19.4104 4.73702C19.8064 5.01475 19.997 5.44679 19.997 6.01769V14.967Z" fill="#FD7E0D"/>
</svg>
